<?xml version="1.0" encoding="utf-8"?>
<!-- Generator: Adobe Illustrator 25.4.1, SVG Export Plug-In . SVG Version: 6.00 Build 0)  -->
<svg version="1.1" id="Layer_1" xmlns="http://www.w3.org/2000/svg" xmlns:xlink="http://www.w3.org/1999/xlink" x="0px" y="0px"
	 viewBox="0 0 100 100" style="enable-background:new 0 0 100 100;" xml:space="preserve">
<style type="text/css">
	.st0{display:none;}
	.st1{display:inline;}
	.st2{display:inline;fill:url(#SVGID_1_);}
	.st3{display:inline;fill:url(#SVGID_00000147921687516631324030000004014721904509092754_);}
	.st4{fill:#330000;}
	.st5{fill:#FF9A00;}
	.st6{display:inline;fill:#FF9A00;}
	.st7{display:inline;fill:#0ACF83;}
	.st8{display:inline;fill:#A259FF;}
	.st9{display:inline;fill:#F24E1E;}
	.st10{display:inline;fill:#FF7262;}
	.st11{display:inline;fill:#1ABCFE;}
	.st12{display:inline;fill:url(#SVGID_00000078032407507155745750000005116120438309967754_);}
	.st13{display:inline;fill:#FFFFFF;}
	.st14{display:inline;fill:url(#SVGID_00000025421561752555436760000015996292740358457523_);}
	.st15{display:inline;fill:url(#SVGID_00000134952320278359613590000009725077337311694012_);}
	.st16{display:inline;fill:url(#SVGID_00000111911436561043245160000000702469193602983051_);}
	.st17{display:inline;fill:url(#SVGID_00000064323337582422947390000014078411370930069938_);}
	.st18{display:inline;fill:#134881;}
	.st19{display:inline;fill:url(#SVGID_00000062189325699549210250000016092880261979508404_);}
	.st20{display:inline;fill:#F7DF1E;}
	.st21{display:inline;fill:#323330;}
	.st22{display:inline;fill:#3178C6;}
	.st23{fill:#FFFFFF;}
	.st24{fill:#F05138;}
	.st25{display:inline;fill:#61DAFB;}
	.st26{fill:#61DAFB;}
	.st27{fill:#00979D;}
	.st28{fill:#81C9CB;}
</style>
<g id="NextJS_00000101818090805187509770000012522793872671020446_" class="st0">
	<path class="st1" d="M100,50c0,14.9-6.6,28.4-16.9,37.5c-1.7,1.5-3.4,2.8-5.2,4C69.9,96.9,60.3,100,50,100C22.4,100,0,77.6,0,50
		S22.4,0,50,0S100,22.4,100,50z"/>
	<linearGradient id="SVGID_1_" gradientUnits="userSpaceOnUse" x1="50.9507" y1="70.7288" x2="66.9982" y2="93.808">
		<stop  offset="0" style="stop-color:#FFFFFF"/>
		<stop  offset="1" style="stop-color:#FFFFFF;stop-opacity:0"/>
	</linearGradient>
	<path class="st2" d="M83,87.5c-1.7,1.5-3.4,2.8-5.2,4l-41.1-53V70H30V30h8.4L83,87.5z"/>
	
		<linearGradient id="SVGID_00000133507116098632651590000002374026649088387766_" gradientUnits="userSpaceOnUse" x1="-664.8793" y1="-85.7301" x2="-664.8795" y2="-85.4187" gradientTransform="matrix(17.0667 0 0 102.4 11414.5322 8808.748)">
		<stop  offset="0" style="stop-color:#FFFFFF"/>
		<stop  offset="1" style="stop-color:#FFFFFF;stop-opacity:0"/>
	</linearGradient>
	
		<rect x="63.9" y="30" style="display:inline;fill:url(#SVGID_00000133507116098632651590000002374026649088387766_);" width="6.7" height="43.4"/>
</g>
<g id="illustrator" class="st0">
	<g class="st1">
		<path class="st4" d="M17.7,98C9.1,98,2,90.7,2,81.8V18.2C2,9.3,9.1,2,17.7,2h64.6C90.9,2,98,9.3,98,18.2v63.7
			c0,8.9-7,16.2-15.7,16.2H17.7z"/>
		<path class="st5" d="M82.3,4C89.8,4,96,10.4,96,18.2v63.7C96,89.6,89.8,96,82.3,96H17.7C10.2,96,4,89.6,4,81.8V18.2
			C4,10.4,10.2,4,17.7,4H82.3 M82.3,0H17.7C7.9,0,0,8.1,0,18.2v63.7c0,10,7.9,18.2,17.7,18.2h64.6c9.8,0,17.7-8.1,17.7-18.2V18.2
			C100,8.1,92.1,0,82.3,0L82.3,0z"/>
	</g>
	<path class="st6" d="M49.3,63.3H33.6l-3.2,10c-0.1,0.4-0.4,0.6-0.8,0.6h-8c-0.5,0-0.6-0.3-0.5-0.8l13.6-39.3
		c0.1-0.4,0.3-0.9,0.4-1.4c0.2-0.9,0.3-1.8,0.3-2.8c0-0.2,0.1-0.4,0.3-0.5h11c0.3,0,0.5,0.1,0.6,0.3l15.5,43.6
		c0.1,0.5,0,0.7-0.4,0.7h-8.8c-0.3,0-0.6-0.2-0.7-0.5L49.3,63.3z M36,54.7h10.8c-0.3-0.9-0.6-1.9-1-3c-0.4-1.1-0.8-2.4-1.1-3.6
		c-0.4-1.3-0.8-2.6-1.2-3.9s-0.8-2.5-1.1-3.8c-0.3-1.2-0.6-2.3-0.9-3.3h-0.1c-0.4,1.8-0.8,3.6-1.4,5.5c-0.6,2-1.3,4.1-1.9,6.3
		C37.3,50.9,36.7,52.9,36,54.7z M72.2,36.6c-1.4,0-2.8-0.5-3.8-1.5c-1-1.1-1.5-2.5-1.4-3.9c0-1.4,0.5-2.8,1.5-3.8
		c1-1,2.4-1.5,3.8-1.5c1.7,0,2.9,0.5,3.9,1.5c0.9,1,1.4,2.4,1.4,3.8c0,1.4-0.5,2.8-1.5,3.9C75.1,36.1,73.6,36.7,72.2,36.6L72.2,36.6
		z M67.4,73.4V40.7c0-0.4,0.2-0.6,0.6-0.6h8.4c0.4,0,0.6,0.2,0.6,0.6v32.6c0,0.5-0.2,0.7-0.6,0.7h-8.3C67.7,74,67.4,73.8,67.4,73.4z
		"/>
</g>
<g id="Figma" class="st0">
	<path class="st7" d="M33.3,100c9.2,0,16.7-7.5,16.7-16.7V66.7H33.3c-9.2,0-16.7,7.5-16.7,16.7C16.7,92.5,24.1,100,33.3,100z"/>
	<path class="st8" d="M16.7,50c0-9.2,7.5-16.7,16.7-16.7H50v33.3H33.3C24.1,66.7,16.7,59.2,16.7,50z"/>
	<path class="st9" d="M16.7,16.7C16.7,7.5,24.1,0,33.3,0H50v33.3H33.3C24.1,33.3,16.7,25.9,16.7,16.7z"/>
	<path class="st10" d="M50,0h16.7c9.2,0,16.7,7.5,16.7,16.7c0,9.2-7.5,16.7-16.7,16.7H50V0z"/>
	<path class="st11" d="M83.3,50c0,9.2-7.5,16.7-16.7,16.7C57.5,66.7,50,59.2,50,50c0-9.2,7.5-16.7,16.7-16.7
		C75.9,33.3,83.3,40.8,83.3,50z"/>
</g>
<g id="Facebook" class="st0">
	
		<linearGradient id="SVGID_00000173161555114384566080000010060901828150000772_" gradientUnits="userSpaceOnUse" x1="-269.25" y1="-295.4727" x2="-269.25" y2="-297.8997" gradientTransform="matrix(40 0 0 39.7778 10820.001 11849.7764)">
		<stop  offset="0" style="stop-color:#0062E0"/>
		<stop  offset="1" style="stop-color:#19AFFF"/>
	</linearGradient>
	<path style="display:inline;fill:url(#SVGID_00000173161555114384566080000010060901828150000772_);" d="M41.8,99.5
		C18,95.2,0,74.8,0,50C0,22.5,22.5,0,50,0s50,22.5,50,50c0,24.8-18,45.2-41.8,49.5l-2.8-2.3h-11C44.5,97.2,41.7,99.5,41.8,99.5z"/>
	<path class="st13" d="M69.5,64l2.2-14H58.5v-9.8c0-4,1.5-7,7.5-7h6.5V20.5c-3.5-0.5-7.5-1-11-1C50,19.5,42,26.5,42,39v11H29.5v14
		H42v35.2c2.8,0.5,5.5,0.8,8.2,0.8c2.8,0,5.5-0.2,8.2-0.8V64C58.5,64,69.5,64,69.5,64z"/>
</g>
<g id="Instagram" class="st0">
	
		<radialGradient id="SVGID_00000002361858751513008670000008007520246290501760_" cx="247.6513" cy="-554.8623" r="5.2352" gradientTransform="matrix(-11.7467 3.3128 2.3868 8.4629 4330.1768 3922.1841)" gradientUnits="userSpaceOnUse">
		<stop  offset="0" style="stop-color:#FF005F"/>
		<stop  offset="1" style="stop-color:#FC01D8"/>
	</radialGradient>
	<path style="display:inline;fill:url(#SVGID_00000002361858751513008670000008007520246290501760_);" d="M50,0
		C29.1,0,23,0,21.9,0.1c-4.3,0.4-6.9,1-9.9,2.5C9.8,3.7,8,5,6.3,6.8C3.1,10.1,1.2,14.2,0.5,19C0.1,21.3,0,21.8,0,33.7
		c0,4,0,9.2,0,16.3c0,20.9,0,27,0.1,28.1c0.3,4.2,1,6.8,2.4,9.7c2.6,5.5,7.7,9.6,13.7,11.2c2.1,0.5,4.3,0.8,7.3,1
		c1.2,0.1,13.9,0.1,26.5,0.1c12.6,0,25.3,0,26.5-0.1c3.4-0.2,5.3-0.4,7.5-1c6-1.5,11-5.6,13.7-11.2c1.4-2.8,2-5.5,2.4-9.5
		C100,77.4,100,63.7,100,50c0-13.7,0-27.4-0.1-28.3c-0.3-4-1-6.7-2.4-9.6c-1.1-2.3-2.4-4.1-4.3-5.9C89.9,3.1,85.9,1.2,81,0.5
		C78.7,0.1,78.2,0,66.3,0L50,0z"/>
	
		<radialGradient id="SVGID_00000065755369201553768400000007677190086598385834_" cx="200.3752" cy="-478.0736" r="5.2352" gradientTransform="matrix(0 -15.2473 -16.1771 0 -7707.2637 3162.8813)" gradientUnits="userSpaceOnUse">
		<stop  offset="0" style="stop-color:#FFCC00"/>
		<stop  offset="0.1242" style="stop-color:#FFCC00"/>
		<stop  offset="0.5672" style="stop-color:#FE4A05"/>
		<stop  offset="0.6942" style="stop-color:#FF0F3F"/>
		<stop  offset="1" style="stop-color:#FE0657;stop-opacity:0"/>
	</radialGradient>
	<path style="display:inline;fill:url(#SVGID_00000065755369201553768400000007677190086598385834_);" d="M50,0
		C29.1,0,23,0,21.9,0.1c-4.3,0.4-6.9,1-9.9,2.5C9.8,3.7,8,5,6.3,6.8C3.1,10.1,1.2,14.2,0.5,19C0.1,21.3,0,21.8,0,33.7
		c0,4,0,9.2,0,16.3c0,20.9,0,27,0.1,28.1c0.3,4.2,1,6.8,2.4,9.7c2.6,5.5,7.7,9.6,13.7,11.2c2.1,0.5,4.3,0.8,7.3,1
		c1.2,0.1,13.9,0.1,26.5,0.1c12.6,0,25.3,0,26.5-0.1c3.4-0.2,5.3-0.4,7.5-1c6-1.5,11-5.6,13.7-11.2c1.4-2.8,2-5.5,2.4-9.5
		C100,77.4,100,63.7,100,50c0-13.7,0-27.4-0.1-28.3c-0.3-4-1-6.7-2.4-9.6c-1.1-2.3-2.4-4.1-4.3-5.9C89.9,3.1,85.9,1.2,81,0.5
		C78.7,0.1,78.2,0,66.3,0L50,0z"/>
	
		<radialGradient id="SVGID_00000097493360795130495210000015372482468136175020_" cx="244.4573" cy="-430.0297" r="6.5" gradientTransform="matrix(2.549 -4.3919 -5.7178 -3.3185 -3029.3994 -254.8101)" gradientUnits="userSpaceOnUse">
		<stop  offset="0" style="stop-color:#FFCC00"/>
		<stop  offset="1" style="stop-color:#FFCC00;stop-opacity:0"/>
	</radialGradient>
	<path style="display:inline;fill:url(#SVGID_00000097493360795130495210000015372482468136175020_);" d="M50,0
		C29.1,0,23,0,21.9,0.1c-4.3,0.4-6.9,1-9.9,2.5C9.8,3.7,8,5,6.3,6.8C3.1,10.1,1.2,14.2,0.5,19C0.1,21.3,0,21.8,0,33.7
		c0,4,0,9.2,0,16.3c0,20.9,0,27,0.1,28.1c0.3,4.2,1,6.8,2.4,9.7c2.6,5.5,7.7,9.6,13.7,11.2c2.1,0.5,4.3,0.8,7.3,1
		c1.2,0.1,13.9,0.1,26.5,0.1c12.6,0,25.3,0,26.5-0.1c3.4-0.2,5.3-0.4,7.5-1c6-1.5,11-5.6,13.7-11.2c1.4-2.8,2-5.5,2.4-9.5
		C100,77.4,100,63.7,100,50c0-13.7,0-27.4-0.1-28.3c-0.3-4-1-6.7-2.4-9.6c-1.1-2.3-2.4-4.1-4.3-5.9C89.9,3.1,85.9,1.2,81,0.5
		C78.7,0.1,78.2,0,66.3,0L50,0z"/>
	
		<radialGradient id="SVGID_00000129203703158093694340000000522047712631154330_" cx="140.3023" cy="153.3757" r="6.7081" gradientTransform="matrix(-9.0667 2.553 0.8696 3.0891 1152.2733 -827.9149)" gradientUnits="userSpaceOnUse">
		<stop  offset="0" style="stop-color:#780CFF"/>
		<stop  offset="1" style="stop-color:#820BFF;stop-opacity:0"/>
	</radialGradient>
	<path style="display:inline;fill:url(#SVGID_00000129203703158093694340000000522047712631154330_);" d="M50,0
		C29.1,0,23,0,21.9,0.1c-4.3,0.4-6.9,1-9.9,2.5C9.8,3.7,8,5,6.3,6.8C3.1,10.1,1.2,14.2,0.5,19C0.1,21.3,0,21.8,0,33.7
		c0,4,0,9.2,0,16.3c0,20.9,0,27,0.1,28.1c0.3,4.2,1,6.8,2.4,9.7c2.6,5.5,7.7,9.6,13.7,11.2c2.1,0.5,4.3,0.8,7.3,1
		c1.2,0.1,13.9,0.1,26.5,0.1c12.6,0,25.3,0,26.5-0.1c3.4-0.2,5.3-0.4,7.5-1c6-1.5,11-5.6,13.7-11.2c1.4-2.8,2-5.5,2.4-9.5
		C100,77.4,100,63.7,100,50c0-13.7,0-27.4-0.1-28.3c-0.3-4-1-6.7-2.4-9.6c-1.1-2.3-2.4-4.1-4.3-5.9C89.9,3.1,85.9,1.2,81,0.5
		C78.7,0.1,78.2,0,66.3,0L50,0z"/>
	<path class="st13" d="M50,12.8c-10.1,0-11.4,0-15.3,0.2c-4,0.2-6.7,0.8-9,1.7c-2.4,0.9-4.5,2.2-6.6,4.3c-2.1,2.1-3.3,4.1-4.3,6.6
		c-0.9,2.4-1.5,5.1-1.7,9c-0.2,4-0.2,5.2-0.2,15.3c0,10.1,0,11.4,0.2,15.3c0.2,4,0.8,6.7,1.7,9c1,2.4,2.2,4.5,4.3,6.6
		c2.1,2.1,4.1,3.3,6.6,4.3c2.4,0.9,5.1,1.5,9,1.7c4,0.2,5.2,0.2,15.3,0.2c10.1,0,11.4,0,15.3-0.2c4-0.2,6.7-0.8,9-1.7
		c2.4-0.9,4.5-2.2,6.6-4.3c2.1-2.1,3.3-4.1,4.3-6.6c0.9-2.4,1.5-5.1,1.7-9c0.2-4,0.2-5.2,0.2-15.3c0-10.1,0-11.4-0.2-15.3
		c-0.2-4-0.8-6.7-1.7-9c-1-2.4-2.2-4.5-4.3-6.6c-2.1-2.1-4.1-3.3-6.6-4.3c-2.4-0.9-5.1-1.5-9-1.7C61.4,12.9,60.1,12.8,50,12.8
		L50,12.8z M46.7,19.5c1,0,2.1,0,3.3,0c9.9,0,11.1,0,15,0.2c3.6,0.2,5.6,0.8,6.9,1.3c1.7,0.7,3,1.5,4.3,2.8c1.3,1.3,2.1,2.5,2.8,4.3
		c0.5,1.3,1.1,3.3,1.3,6.9c0.2,3.9,0.2,5.1,0.2,15c0,9.9,0,11.1-0.2,15c-0.2,3.6-0.8,5.6-1.3,6.9c-0.7,1.7-1.5,3-2.8,4.3
		c-1.3,1.3-2.5,2.1-4.3,2.8c-1.3,0.5-3.3,1.1-6.9,1.3c-3.9,0.2-5.1,0.2-15,0.2c-9.9,0-11.1,0-15-0.2c-3.6-0.2-5.6-0.8-6.9-1.3
		c-1.7-0.7-3-1.5-4.3-2.8c-1.3-1.3-2.1-2.5-2.8-4.3c-0.5-1.3-1.1-3.3-1.3-6.9c-0.2-3.9-0.2-5.1-0.2-15c0-9.9,0-11.1,0.2-15
		c0.2-3.6,0.8-5.6,1.3-6.9c0.7-1.7,1.5-3,2.8-4.3c1.3-1.3,2.5-2.1,4.3-2.8c1.3-0.5,3.3-1.1,6.9-1.3C38.4,19.6,39.8,19.5,46.7,19.5
		L46.7,19.5z M69.9,25.7c-2.5,0-4.5,2-4.5,4.5c0,2.5,2,4.5,4.5,4.5c2.5,0,4.5-2,4.5-4.5C74.3,27.7,72.3,25.7,69.9,25.7L69.9,25.7z
		 M50,30.9c-10.5,0-19.1,8.5-19.1,19.1S39.5,69.1,50,69.1S69.1,60.5,69.1,50S60.6,30.9,50,30.9L50,30.9z M50,37.6
		c6.8,0,12.4,5.5,12.4,12.4c0,6.8-5.5,12.4-12.4,12.4c-6.8,0-12.4-5.5-12.4-12.4C37.6,43.2,43.2,37.6,50,37.6L50,37.6z"/>
</g>
<g id="AffDesign" class="st0">
	<path class="st18" d="M100,9.8c0-5.4-4.4-9.8-9.8-9.8H9.8C4.4,0,0,4.4,0,9.8v80.5c0,5.4,4.4,9.8,9.8,9.8h80.5
		c5.4,0,9.8-4.4,9.8-9.8V9.8z"/>
	
		<radialGradient id="SVGID_00000132799110269485952310000012999808704562407061_" cx="-101.75" cy="-155.3334" r="0.8286" gradientTransform="matrix(122.3514 0 0 122.3514 12521.8535 18996.4902)" gradientUnits="userSpaceOnUse">
		<stop  offset="0" style="stop-color:#6BE1FB"/>
		<stop  offset="1" style="stop-color:#38BDFA"/>
	</radialGradient>
	<path style="display:inline;fill:url(#SVGID_00000132799110269485952310000012999808704562407061_);" d="M92.7,88.8
		c0,2.1-1.8,3.9-3.9,3.9H49.3L32.5,63.5h60.2V88.8L92.7,88.8z M7.3,88.8V71.6L44.5,7.3H59L27.6,61.7l17.9,31H11.2
		C9.1,92.7,7.3,90.9,7.3,88.8z M54.9,60.2H40.2c-1.6,0-3.2-0.9-4-2.3c-0.8-1.4-0.8-3.2,0-4.6l7.3-12.7L54.9,60.2z M88.8,7.3
		c2.1,0,3.9,1.7,3.9,3.9v49H58.7L45.5,37.3L62.8,7.3C62.8,7.3,88.8,7.3,88.8,7.3z"/>
</g>
<g id="JavaS" class="st0">
	<path class="st20" d="M10,0h80c5.5,0,10,4.5,10,10v80c0,5.5-4.5,10-10,10H10c-5.5,0-10-4.5-10-10V10C0,4.5,4.5,0,10,0z"/>
	<path class="st21" d="M91.8,76.1c-0.7-4.6-3.7-8.4-12.5-12c-3.1-1.4-6.5-2.4-7.5-4.7c-0.4-1.4-0.4-2.1-0.2-2.9
		c0.7-2.7,3.8-3.5,6.3-2.7c1.6,0.5,3.1,1.8,4.1,3.8c4.3-2.8,4.3-2.8,7.3-4.7c-1.1-1.7-1.7-2.5-2.4-3.2c-2.6-2.9-6.1-4.4-11.8-4.3
		l-2.9,0.4c-2.8,0.7-5.5,2.2-7.1,4.2c-4.7,5.4-3.4,14.8,2.4,18.6c5.7,4.3,14,5.2,15.1,9.2c1,4.9-3.6,6.5-8.2,5.9
		c-3.4-0.7-5.3-2.4-7.3-5.6c-3.7,2.2-3.7,2.2-7.6,4.4c0.9,2,1.9,2.9,3.4,4.6c7.2,7.3,25.4,7,28.6-4.1C91.6,82.6,92.5,80.1,91.8,76.1
		z M54.4,46H45l0,24.2c0,5.1,0.3,9.9-0.6,11.3c-1.4,2.8-4.9,2.5-6.5,1.9c-1.6-0.8-2.5-2-3.5-3.6c-0.3-0.5-0.5-0.8-0.5-0.9l-7.6,4.7
		c1.3,2.6,3.1,4.8,5.5,6.3c3.6,2.1,8.4,2.8,13.4,1.6c3.3-0.9,6.1-2.9,7.5-5.9c2.1-3.9,1.7-8.7,1.7-13.9C54.4,63.1,54.4,54.6,54.4,46
		z"/>
</g>
<g id="TypeS" class="st0">
	<path class="st22" d="M10,0h80c5.5,0,10,4.5,10,10v80c0,5.5-4.5,10-10,10H10c-5.5,0-10-4.5-10-10V10C0,4.5,4.5,0,10,0z"/>
	<g class="st1">
		<path class="st23" d="M91.8,76.1c-0.7-4.6-3.7-8.4-12.5-12c-3.1-1.4-6.5-2.4-7.5-4.7c-0.4-1.4-0.4-2.1-0.2-2.9
			c0.7-2.7,3.8-3.5,6.3-2.7c1.6,0.5,3.1,1.8,4.1,3.8c4.3-2.8,4.3-2.8,7.3-4.7c-1.1-1.7-1.7-2.5-2.4-3.2c-2.6-2.9-6.1-4.4-11.8-4.3
			l-2.9,0.4c-2.8,0.7-5.5,2.2-7.1,4.2c-4.7,5.4-3.4,14.8,2.4,18.6c5.7,4.3,14,5.2,15.1,9.2c1,4.9-3.6,6.5-8.2,5.9
			c-3.4-0.7-5.3-2.4-7.3-5.6c-3.7,2.2-3.7,2.2-7.6,4.4c0.9,2,1.9,2.9,3.4,4.6c7.2,7.3,25.4,7,28.6-4.1
			C91.6,82.6,92.5,80.1,91.8,76.1z"/>
		<path class="st23" d="M37.2,54.6H25.8V46h32.6v8.6H46.9v38.1h-9.8V54.6z"/>
	</g>
</g>
<g id="Swift" class="st0">
	<g class="st1">
		<path class="st24" d="M100,27.7c0-1,0-2,0-3c-0.1-2.2-0.2-4.4-0.6-6.6c-0.4-2.2-1-4.2-2.1-6.2c-1-2-2.3-3.8-3.9-5.3
			c-1.6-1.6-3.4-2.9-5.3-3.9c-2-1-4-1.7-6.2-2.1c-2.2-0.4-4.4-0.5-6.6-0.6c-1,0-2,0-3,0c-1.2,0-2.4,0-3.6,0H42.2h-11
			c-1.2,0-2.4,0-3.6,0c-1,0-2,0-3,0c-0.5,0-1.1,0-1.6,0.1c-1.6,0.1-3.3,0.2-4.9,0.5c-1.6,0.3-3.2,0.7-4.7,1.4
			c-0.5,0.2-1,0.4-1.5,0.7C10.4,3.4,9,4.4,7.8,5.4C7.3,5.8,6.9,6.2,6.6,6.5C5,8.1,3.7,9.9,2.7,11.9c-1,2-1.7,4-2.1,6.2
			c-0.4,2.2-0.5,4.4-0.6,6.6c0,1,0,2,0,3c0,1.2,0,2.4,0,3.6v16.3v21.1c0,1.2,0,2.4,0,3.6c0,1,0,2,0,3c0.1,2.2,0.2,4.4,0.6,6.6
			c0.4,2.2,1,4.2,2.1,6.2c1,2,2.3,3.8,3.9,5.3c1.6,1.6,3.4,2.9,5.3,3.9c2,1,4,1.7,6.2,2.1c2.2,0.4,4.4,0.5,6.6,0.6c1,0,2,0,3,0
			c1.2,0,2.4,0,3.6,0h37.4c1.2,0,2.4,0,3.6,0c1,0,2,0,3,0c2.2-0.1,4.4-0.2,6.6-0.6c2.2-0.4,4.2-1,6.2-2.1c2-1,3.8-2.3,5.3-3.9
			c1.6-1.6,2.9-3.4,3.9-5.3c1-2,1.7-4,2.1-6.2c0.4-2.2,0.5-4.4,0.6-6.6c0-1,0-2,0-3c0-1.2,0-2.4,0-3.6V31.3
			C100,30.1,100,28.9,100,27.7z"/>
		<path class="st23" d="M79.2,61.7C79.2,61.7,79.2,61.7,79.2,61.7c0.1-0.4,0.2-0.8,0.3-1.1c4.2-16.5-6-36.1-23.1-46.4
			c7.5,10.2,10.8,22.5,7.9,33.3c-0.3,1-0.6,1.9-0.9,2.8c-0.4-0.2-0.9-0.5-1.5-0.9c0,0-17.1-10.5-35.5-29.1
			c-0.5-0.5,9.9,14.8,21.6,27.2C42.4,44.3,27,33.1,17.3,24.2c1.2,2,2.6,3.9,4.2,5.8C29.6,40.3,40.2,53,52.9,62.8
			c-8.9,5.5-21.6,5.9-34.2,0c-3.1-1.5-6-3.2-8.7-5.2c5.3,8.5,13.5,15.9,23.5,20.2c11.9,5.1,23.7,4.8,32.6,0.1l0,0
			c0,0,0.1-0.1,0.1-0.1c0.4-0.2,0.7-0.4,1.1-0.6c4.2-2.2,12.6-4.4,17.1,4.3C85.5,83.6,87.8,72.3,79.2,61.7z"/>
	</g>
</g>
<g id="ReactJS" class="st0">
	<circle class="st25" cx="50" cy="50" r="8.9"/>
	<g class="st1">
		<path class="st26" d="M50,70.4c-28,0-50-9-50-20.4s22-20.4,50-20.4c28,0,50,9,50,20.4S78,70.4,50,70.4z M50,33.9
			C23.1,33.9,4.3,42.4,4.3,50c0,7.6,18.7,16.1,45.7,16.1c26.9,0,45.7-8.5,45.7-16.1C95.7,42.4,76.9,33.9,50,33.9z"/>
		<path class="st26" d="M70,94.6c-4.4,0-9.8-2.4-15.6-7.2c-7.7-6.3-15.5-15.9-22.1-27.2C18.3,35.9,15.1,12.4,25,6.7
			c5.1-2.9,12.4-0.8,20.6,5.9c7.7,6.3,15.5,15.9,22,27.2c6.5,11.3,11,22.9,12.5,32.7C81.9,83,80.1,90.4,75,93.3
			C73.5,94.2,71.8,94.6,70,94.6z M30.1,9.7c-1.1,0-2.1,0.2-2.9,0.7c-6.6,3.8-4.6,24.3,8.9,47.6c6.3,10.8,13.7,20.1,21,26
			c6.7,5.4,12.4,7.4,15.7,5.5c3.3-1.9,4.5-7.9,3.1-16.4c-1.5-9.3-5.8-20.4-12-31.2l0,0c-6.3-10.8-13.7-20.1-21-26
			C37.9,11.9,33.4,9.7,30.1,9.7z"/>
		<path class="st26" d="M30,94.6c-1.9,0-3.5-0.4-5-1.3c-5.1-2.9-6.9-10.3-5.2-20.8c1.6-9.8,6-21.4,12.5-32.7
			C46.3,15.5,65.1,1,75,6.7c9.9,5.7,6.7,29.2-7.3,53.5l0,0c-6.5,11.3-14.3,20.9-22,27.2C39.8,92.2,34.5,94.6,30,94.6z M70,9.8
			c-7.8,0-22.1,11.7-33.9,32.2c-6.3,10.8-10.5,21.9-12,31.2c-1.4,8.5-0.2,14.4,3.1,16.4c3.3,1.9,9.1-0.1,15.7-5.5
			c7.3-5.9,14.8-15.2,21-26l0,0c13.5-23.3,15.5-43.8,8.9-47.6C72,10,71.1,9.8,70,9.8z"/>
	</g>
</g>
<g>
	<g>
		<path class="st27" d="M50,98.5C23.3,98.5,1.5,76.7,1.5,50C1.5,23.3,23.3,1.5,50,1.5c26.7,0,48.5,21.8,48.5,48.5
			C98.5,76.7,76.7,98.5,50,98.5z"/>
		<path class="st28" d="M50,0v3c25.9,0,47,21.1,47,47c0,25.9-21.1,47-47,47C24.1,97,3,75.9,3,50C3,24.1,24.1,3,50,3V0 M50,0
			C22.4,0,0,22.4,0,50c0,27.6,22.4,50,50,50c27.6,0,50-22.4,50-50C100,22.4,77.6,0,50,0L50,0z"/>
	</g>
	<g>
		<path class="st23" d="M69.1,67.9c-0.9,0-1.9-0.1-2.9-0.2C58.3,66.5,53,60.8,50,56.4c-3,4.4-8.3,10.1-16.2,11.2
			c-0.9,0.1-1.9,0.2-2.9,0.2c-4.9,0-9.6-1.8-13.1-5.2c-3.5-3.4-5.5-7.9-5.5-12.7c0-4.8,1.9-9.3,5.5-12.7c3.5-3.3,8.1-5.2,13.1-5.2
			c0.9,0,1.9,0.1,2.8,0.2C41.7,33.4,47,39.2,50,43.5c3-4.4,8.3-10.1,16.2-11.2c0.9-0.1,1.9-0.2,2.8-0.2c4.9,0,9.6,1.8,13.1,5.2
			c3.5,3.4,5.5,7.9,5.5,12.7c0,4.8-1.9,9.3-5.5,12.7C78.7,66,74,67.9,69.1,67.9 M53.5,50c1.6,3,6.1,10.3,13.6,11.4
			c0.7,0.1,1.3,0.1,2,0.1c6.7,0,12.2-5.2,12.2-11.5s-5.5-11.5-12.2-11.5c-0.6,0-1.3,0-2,0.1C59.7,39.7,55.1,47,53.5,50 M30.9,38.5
			c-6.7,0-12.2,5.2-12.2,11.5c0,6.4,5.5,11.5,12.2,11.5c0.6,0,1.3-0.1,2-0.1C40.4,60.3,44.9,53,46.5,50c-1.5-3-6.1-10.3-13.6-11.4
			C32.2,38.5,31.6,38.5,30.9,38.5"/>
		<path class="st23" d="M25.8,48.2h11.1v3.6H25.8V48.2z M74.1,48.2h-3.8v-3.8h-3.6v3.8H63v3.6h3.8v3.8h3.6v-3.8h3.8V48.2z"/>
	</g>
</g>
</svg>
