<?xml version="1.0" encoding="utf-8"?>
<!-- Generator: Adobe Illustrator 25.4.1, SVG Export Plug-In . SVG Version: 6.00 Build 0)  -->
<svg version="1.1" id="Layer_1" xmlns="http://www.w3.org/2000/svg" xmlns:xlink="http://www.w3.org/1999/xlink" x="0px" y="0px"
	 viewBox="0 0 100 100" style="enable-background:new 0 0 100 100;" xml:space="preserve">
<style type="text/css">
	.st0{display:none;}
	.st1{display:inline;}
	.st2{display:inline;fill:url(#SVGID_1_);}
	.st3{display:inline;fill:url(#SVGID_00000062878552566333909090000014916353680790615945_);}
	.st4{fill:#330000;}
	.st5{fill:#FF9A00;}
	.st6{display:inline;fill:#0ACF83;}
	.st7{display:inline;fill:#A259FF;}
	.st8{display:inline;fill:#F24E1E;}
	.st9{display:inline;fill:#FF7262;}
	.st10{display:inline;fill:#1ABCFE;}
</style>
<g id="NextJS_00000101818090805187509770000012522793872671020446_" class="st0">
	<path class="st1" d="M100,50c0,14.9-6.6,28.4-16.9,37.5c-1.7,1.5-3.4,2.8-5.2,4C69.9,96.9,60.3,100,50,100C22.4,100,0,77.6,0,50
		S22.4,0,50,0S100,22.4,100,50z"/>
	<linearGradient id="SVGID_1_" gradientUnits="userSpaceOnUse" x1="50.9507" y1="70.7288" x2="66.9982" y2="93.808">
		<stop  offset="0" style="stop-color:#FFFFFF"/>
		<stop  offset="1" style="stop-color:#FFFFFF;stop-opacity:0"/>
	</linearGradient>
	<path class="st2" d="M83,87.5c-1.7,1.5-3.4,2.8-5.2,4l-41.1-53V70H30V30h8.4L83,87.5z"/>
	
		<linearGradient id="SVGID_00000096753994639310787070000018168607565129483417_" gradientUnits="userSpaceOnUse" x1="-664.8793" y1="-85.7301" x2="-664.8795" y2="-85.4187" gradientTransform="matrix(17.0667 0 0 102.4 11414.5322 8808.748)">
		<stop  offset="0" style="stop-color:#FFFFFF"/>
		<stop  offset="1" style="stop-color:#FFFFFF;stop-opacity:0"/>
	</linearGradient>
	
		<rect x="63.9" y="30" style="display:inline;fill:url(#SVGID_00000096753994639310787070000018168607565129483417_);" width="6.7" height="43.4"/>
</g>
<g id="illustrator">
	<g>
		<path class="st4" d="M17.7,98C9.1,98,2,90.7,2,81.8V18.2C2,9.3,9.1,2,17.7,2h64.6C90.9,2,98,9.3,98,18.2v63.7
			c0,8.9-7,16.2-15.7,16.2H17.7z"/>
		<path class="st5" d="M82.3,4C89.8,4,96,10.4,96,18.2v63.7C96,89.6,89.8,96,82.3,96H17.7C10.2,96,4,89.6,4,81.8V18.2
			C4,10.4,10.2,4,17.7,4H82.3 M82.3,0H17.7C7.9,0,0,8.1,0,18.2v63.7c0,10,7.9,18.2,17.7,18.2h64.6c9.8,0,17.7-8.1,17.7-18.2V18.2
			C100,8.1,92.1,0,82.3,0L82.3,0z"/>
	</g>
	<path class="st5" d="M49.3,63.3H33.6l-3.2,10c-0.1,0.4-0.4,0.6-0.8,0.6h-8c-0.5,0-0.6-0.3-0.5-0.8l13.6-39.3
		c0.1-0.4,0.3-0.9,0.4-1.4c0.2-0.9,0.3-1.8,0.3-2.8c0-0.2,0.1-0.4,0.3-0.5h11c0.3,0,0.5,0.1,0.6,0.3l15.5,43.6
		c0.1,0.5,0,0.7-0.4,0.7h-8.8c-0.3,0-0.6-0.2-0.7-0.5L49.3,63.3z M36,54.7h10.8c-0.3-0.9-0.6-1.9-1-3c-0.4-1.1-0.8-2.4-1.1-3.6
		c-0.4-1.3-0.8-2.6-1.2-3.9s-0.8-2.5-1.1-3.8c-0.3-1.2-0.6-2.3-0.9-3.3h-0.1c-0.4,1.8-0.8,3.6-1.4,5.5c-0.6,2-1.3,4.1-1.9,6.3
		C37.3,50.9,36.7,52.9,36,54.7z M72.2,36.6c-1.4,0-2.8-0.5-3.8-1.5c-1-1.1-1.5-2.5-1.4-3.9c0-1.4,0.5-2.8,1.5-3.8
		c1-1,2.4-1.5,3.8-1.5c1.7,0,2.9,0.5,3.9,1.5c0.9,1,1.4,2.4,1.4,3.8c0,1.4-0.5,2.8-1.5,3.9C75.1,36.1,73.6,36.7,72.2,36.6L72.2,36.6
		z M67.4,73.4V40.7c0-0.4,0.2-0.6,0.6-0.6h8.4c0.4,0,0.6,0.2,0.6,0.6v32.6c0,0.5-0.2,0.7-0.6,0.7h-8.3C67.7,74,67.4,73.8,67.4,73.4z
		"/>
</g>
<g id="Figma" class="st0">
	<path class="st6" d="M33.3,100c9.2,0,16.7-7.5,16.7-16.7V66.7H33.3c-9.2,0-16.7,7.5-16.7,16.7C16.7,92.5,24.1,100,33.3,100z"/>
	<path class="st7" d="M16.7,50c0-9.2,7.5-16.7,16.7-16.7H50v33.3H33.3C24.1,66.7,16.7,59.2,16.7,50z"/>
	<path class="st8" d="M16.7,16.7C16.7,7.5,24.1,0,33.3,0H50v33.3H33.3C24.1,33.3,16.7,25.9,16.7,16.7z"/>
	<path class="st9" d="M50,0h16.7c9.2,0,16.7,7.5,16.7,16.7c0,9.2-7.5,16.7-16.7,16.7H50V0z"/>
	<path class="st10" d="M83.3,50c0,9.2-7.5,16.7-16.7,16.7C57.5,66.7,50,59.2,50,50c0-9.2,7.5-16.7,16.7-16.7
		C75.9,33.3,83.3,40.8,83.3,50z"/>
</g>
</svg>
