<?xml version="1.0" encoding="utf-8"?>
<!-- Generator: Adobe Illustrator 28.0.0, SVG Export Plug-In . SVG Version: 6.00 Build 0)  -->
<svg version="1.1" id="Layer_1" xmlns="http://www.w3.org/2000/svg" xmlns:xlink="http://www.w3.org/1999/xlink" x="0px" y="0px"
	 viewBox="0 0 100 100" style="enable-background:new 0 0 100 100;" xml:space="preserve">
<style type="text/css">
	.st0{display:none;}
	.st1{display:inline;}
	.st2{display:inline;fill:url(#SVGID_1_);}
	.st3{display:inline;fill:url(#SVGID_00000116934359227468463640000018056281156587723692_);}
	.st4{fill:#330000;}
	.st5{fill:#FF9A00;}
	.st6{display:inline;fill:#FF9A00;}
	.st7{display:inline;fill:#0ACF83;}
	.st8{display:inline;fill:#A259FF;}
	.st9{display:inline;fill:#F24E1E;}
	.st10{display:inline;fill:#FF7262;}
	.st11{display:inline;fill:#1ABCFE;}
	.st12{display:inline;fill:url(#SVGID_00000135681153864280518550000009891649617497284765_);}
	.st13{display:inline;fill:#FFFFFF;}
	.st14{fill:url(#SVGID_00000057862722800224386330000001835836672318042777_);}
	.st15{fill:url(#SVGID_00000148645287521974182790000014527221723687737242_);}
	.st16{fill:url(#SVGID_00000067925807353011125290000000537106450992284310_);}
	.st17{fill:url(#SVGID_00000075855694368309759400000013655636632173284795_);}
	.st18{fill:#FFFFFF;}
</style>
<g id="NextJS_00000101818090805187509770000012522793872671020446_" class="st0">
	<path class="st1" d="M100,50c0,14.9-6.6,28.4-16.9,37.5c-1.7,1.5-3.4,2.8-5.2,4c-8,5.4-17.6,8.5-27.9,8.5C22.4,100,0,77.6,0,50
		S22.4,0,50,0S100,22.4,100,50z"/>
	
		<linearGradient id="SVGID_1_" gradientUnits="userSpaceOnUse" x1="50.9318" y1="31.2581" x2="66.9793" y2="8.1789" gradientTransform="matrix(1 0 0 -1 0 102)">
		<stop  offset="0" style="stop-color:#FFFFFF"/>
		<stop  offset="1" style="stop-color:#FFFFFF;stop-opacity:0"/>
	</linearGradient>
	<path class="st2" d="M83,87.5c-1.7,1.5-3.4,2.8-5.2,4l-41.1-53V70H30V30h8.4L83,87.5z"/>
	
		<linearGradient id="SVGID_00000145049264003413133860000016387535720911838903_" gradientUnits="userSpaceOnUse" x1="-904.937" y1="529.361" x2="-904.9372" y2="529.0496" gradientTransform="matrix(17.0667 0 0 -102.4 15511.541 54236.5469)">
		<stop  offset="0" style="stop-color:#FFFFFF"/>
		<stop  offset="1" style="stop-color:#FFFFFF;stop-opacity:0"/>
	</linearGradient>
	
		<rect x="63.9" y="30" style="display:inline;fill:url(#SVGID_00000145049264003413133860000016387535720911838903_);" width="6.7" height="43.4"/>
</g>
<g id="illustrator" class="st0">
	<g class="st1">
		<path class="st4" d="M17.7,98C9.1,98,2,90.7,2,81.8V18.2C2,9.3,9.1,2,17.7,2h64.6C90.9,2,98,9.3,98,18.2v63.7
			c0,8.9-7,16.2-15.7,16.2H17.7V98z"/>
		<path class="st5" d="M82.3,4C89.8,4,96,10.4,96,18.2v63.7C96,89.6,89.8,96,82.3,96H17.7C10.2,96,4,89.6,4,81.8V18.2
			C4,10.4,10.2,4,17.7,4H82.3 M82.3,0H17.7C7.9,0,0,8.1,0,18.2v63.7c0,10,7.9,18.2,17.7,18.2h64.6c9.8,0,17.7-8.1,17.7-18.2V18.2
			C100,8.1,92.1,0,82.3,0L82.3,0z"/>
	</g>
	<path class="st6" d="M49.3,63.3H33.6l-3.2,10c-0.1,0.4-0.4,0.6-0.8,0.6h-8c-0.5,0-0.6-0.3-0.5-0.8l13.6-39.3
		c0.1-0.4,0.3-0.9,0.4-1.4c0.2-0.9,0.3-1.8,0.3-2.8c0-0.2,0.1-0.4,0.3-0.5h11c0.3,0,0.5,0.1,0.6,0.3L62.8,73c0.1,0.5,0,0.7-0.4,0.7
		h-8.8c-0.3,0-0.6-0.2-0.7-0.5L49.3,63.3z M36,54.7h10.8c-0.3-0.9-0.6-1.9-1-3s-0.8-2.4-1.1-3.6c-0.4-1.3-0.8-2.6-1.2-3.9
		s-0.8-2.5-1.1-3.8c-0.3-1.2-0.6-2.3-0.9-3.3h-0.1c-0.4,1.8-0.8,3.6-1.4,5.5c-0.6,2-1.3,4.1-1.9,6.3C37.3,50.9,36.7,52.9,36,54.7z
		 M72.2,36.6c-1.4,0-2.8-0.5-3.8-1.5c-1-1.1-1.5-2.5-1.4-3.9c0-1.4,0.5-2.8,1.5-3.8s2.4-1.5,3.8-1.5c1.7,0,2.9,0.5,3.9,1.5
		c0.9,1,1.4,2.4,1.4,3.8s-0.5,2.8-1.5,3.9C75.1,36.1,73.6,36.7,72.2,36.6L72.2,36.6z M67.4,73.4V40.7c0-0.4,0.2-0.6,0.6-0.6h8.4
		c0.4,0,0.6,0.2,0.6,0.6v32.6c0,0.5-0.2,0.7-0.6,0.7h-8.3C67.7,74,67.4,73.8,67.4,73.4z"/>
</g>
<g id="Figma" class="st0">
	<path class="st7" d="M33.3,100c9.2,0,16.7-7.5,16.7-16.7V66.7H33.3c-9.2,0-16.7,7.5-16.7,16.7C16.7,92.5,24.1,100,33.3,100z"/>
	<path class="st8" d="M16.7,50c0-9.2,7.5-16.7,16.7-16.7H50v33.3H33.3C24.1,66.7,16.7,59.2,16.7,50z"/>
	<path class="st9" d="M16.7,16.7C16.7,7.5,24.1,0,33.3,0H50v33.3H33.3C24.1,33.3,16.7,25.9,16.7,16.7z"/>
	<path class="st10" d="M50,0h16.7c9.2,0,16.7,7.5,16.7,16.7s-7.5,16.7-16.7,16.7H50V0z"/>
	<path class="st11" d="M83.3,50c0,9.2-7.5,16.7-16.7,16.7C57.5,66.7,50,59.2,50,50s7.5-16.7,16.7-16.7S83.3,40.8,83.3,50z"/>
</g>
<g id="Facebook" class="st0">
	
		<linearGradient id="SVGID_00000063602136789053891570000008917361825371179144_" gradientUnits="userSpaceOnUse" x1="-517.875" y1="733.7995" x2="-517.875" y2="736.2265" gradientTransform="matrix(40 0 0 -39.7778 20765 29285.4531)">
		<stop  offset="0" style="stop-color:#0062E0"/>
		<stop  offset="1" style="stop-color:#19AFFF"/>
	</linearGradient>
	<path style="display:inline;fill:url(#SVGID_00000063602136789053891570000008917361825371179144_);" d="M41.8,99.5
		C18,95.2,0,74.8,0,50C0,22.5,22.5,0,50,0s50,22.5,50,50c0,24.8-18,45.2-41.8,49.5l-2.8-2.3h-11C44.5,97.2,41.7,99.5,41.8,99.5z"/>
	<path class="st13" d="M69.5,64l2.2-14H58.5v-9.8c0-4,1.5-7,7.5-7h6.5V20.5c-3.5-0.5-7.5-1-11-1C50,19.5,42,26.5,42,39v11H29.5v14
		H42v35.2c2.8,0.5,5.5,0.8,8.2,0.8c2.8,0,5.5-0.2,8.2-0.8V64C58.5,64,69.5,64,69.5,64z"/>
</g>
<g id="Instagram">
	
		<radialGradient id="SVGID_00000142159095831410952270000006050003367796655753_" cx="-19.7846" cy="956.2281" r="5.2352" gradientTransform="matrix(-11.7467 3.3128 -2.3868 -8.4629 2146.6677 8204.8643)" gradientUnits="userSpaceOnUse">
		<stop  offset="0" style="stop-color:#FF005F"/>
		<stop  offset="1" style="stop-color:#FC01D8"/>
	</radialGradient>
	<path style="fill:url(#SVGID_00000142159095831410952270000006050003367796655753_);" d="M50,0C29.1,0,23,0,21.9,0.1
		c-4.3,0.4-6.9,1-9.9,2.5C9.8,3.7,8,5,6.3,6.8C3.1,10.1,1.2,14.2,0.5,19C0.1,21.3,0,21.8,0,33.7c0,4,0,9.2,0,16.3
		c0,20.9,0,27,0.1,28.1c0.3,4.2,1,6.8,2.4,9.7c2.6,5.5,7.7,9.6,13.7,11.2c2.1,0.5,4.3,0.8,7.3,1c1.2,0.1,13.9,0.1,26.5,0.1
		s25.3,0,26.5-0.1c3.4-0.2,5.3-0.4,7.5-1c6-1.5,11-5.6,13.7-11.2c1.4-2.8,2-5.5,2.4-9.5C100,77.4,100,63.7,100,50s0-27.4-0.1-28.3
		c-0.3-4-1-6.7-2.4-9.6c-1.1-2.3-2.4-4.1-4.3-5.9c-3.3-3.1-7.3-5-12.2-5.7C78.7,0.1,78.2,0,66.3,0H50z"/>
	
		<radialGradient id="SVGID_00000025416678828401229730000015728773278210687139_" cx="-77.2518" cy="940.8366" r="5.2352" gradientTransform="matrix(0 -15.2473 16.1771 0 -15193.4268 -1070.1802)" gradientUnits="userSpaceOnUse">
		<stop  offset="0" style="stop-color:#FFCC00"/>
		<stop  offset="0.1242" style="stop-color:#FFCC00"/>
		<stop  offset="0.5672" style="stop-color:#FE4A05"/>
		<stop  offset="0.6942" style="stop-color:#FF0F3F"/>
		<stop  offset="1" style="stop-color:#FE0657;stop-opacity:0"/>
	</radialGradient>
	<path style="fill:url(#SVGID_00000025416678828401229730000015728773278210687139_);" d="M50,0C29.1,0,23,0,21.9,0.1
		c-4.3,0.4-6.9,1-9.9,2.5C9.8,3.7,8,5,6.3,6.8C3.1,10.1,1.2,14.2,0.5,19C0.1,21.3,0,21.8,0,33.7c0,4,0,9.2,0,16.3
		c0,20.9,0,27,0.1,28.1c0.3,4.2,1,6.8,2.4,9.7c2.6,5.5,7.7,9.6,13.7,11.2c2.1,0.5,4.3,0.8,7.3,1c1.2,0.1,13.9,0.1,26.5,0.1
		s25.3,0,26.5-0.1c3.4-0.2,5.3-0.4,7.5-1c6-1.5,11-5.6,13.7-11.2c1.4-2.8,2-5.5,2.4-9.5C100,77.4,100,63.7,100,50s0-27.4-0.1-28.3
		c-0.3-4-1-6.7-2.4-9.6c-1.1-2.3-2.4-4.1-4.3-5.9c-3.3-3.1-7.3-5-12.2-5.7C78.7,0.1,78.2,0,66.3,0H50z"/>
	
		<radialGradient id="SVGID_00000177455734783884328550000000828462216256987785_" cx="-44.0963" cy="936.5855" r="6.5" gradientTransform="matrix(2.549 -4.3919 5.7178 3.3185 -5190.2612 -3203.1143)" gradientUnits="userSpaceOnUse">
		<stop  offset="0" style="stop-color:#FFCC00"/>
		<stop  offset="1" style="stop-color:#FFCC00;stop-opacity:0"/>
	</radialGradient>
	<path style="fill:url(#SVGID_00000177455734783884328550000000828462216256987785_);" d="M50,0C29.1,0,23,0,21.9,0.1
		c-4.3,0.4-6.9,1-9.9,2.5C9.8,3.7,8,5,6.3,6.8C3.1,10.1,1.2,14.2,0.5,19C0.1,21.3,0,21.8,0,33.7c0,4,0,9.2,0,16.3
		c0,20.9,0,27,0.1,28.1c0.3,4.2,1,6.8,2.4,9.7c2.6,5.5,7.7,9.6,13.7,11.2c2.1,0.5,4.3,0.8,7.3,1c1.2,0.1,13.9,0.1,26.5,0.1
		s25.3,0,26.5-0.1c3.4-0.2,5.3-0.4,7.5-1c6-1.5,11-5.6,13.7-11.2c1.4-2.8,2-5.5,2.4-9.5C100,77.4,100,63.7,100,50s0-27.4-0.1-28.3
		c-0.3-4-1-6.7-2.4-9.6c-1.1-2.3-2.4-4.1-4.3-5.9c-3.3-3.1-7.3-5-12.2-5.7C78.7,0.1,78.2,0,66.3,0H50z"/>
	
		<radialGradient id="SVGID_00000164509553693652467350000003493616991474497971_" cx="-130.832" cy="168.607" r="6.7081" gradientTransform="matrix(-9.0667 2.553 -0.8696 -3.0891 -1026.0239 858.9277)" gradientUnits="userSpaceOnUse">
		<stop  offset="0" style="stop-color:#780CFF"/>
		<stop  offset="1" style="stop-color:#820BFF;stop-opacity:0"/>
	</radialGradient>
	<path style="fill:url(#SVGID_00000164509553693652467350000003493616991474497971_);" d="M50,0C29.1,0,23,0,21.9,0.1
		c-4.3,0.4-6.9,1-9.9,2.5C9.8,3.7,8,5,6.3,6.8C3.1,10.1,1.2,14.2,0.5,19C0.1,21.3,0,21.8,0,33.7c0,4,0,9.2,0,16.3
		c0,20.9,0,27,0.1,28.1c0.3,4.2,1,6.8,2.4,9.7c2.6,5.5,7.7,9.6,13.7,11.2c2.1,0.5,4.3,0.8,7.3,1c1.2,0.1,13.9,0.1,26.5,0.1
		s25.3,0,26.5-0.1c3.4-0.2,5.3-0.4,7.5-1c6-1.5,11-5.6,13.7-11.2c1.4-2.8,2-5.5,2.4-9.5C100,77.4,100,63.7,100,50s0-27.4-0.1-28.3
		c-0.3-4-1-6.7-2.4-9.6c-1.1-2.3-2.4-4.1-4.3-5.9c-3.3-3.1-7.3-5-12.2-5.7C78.7,0.1,78.2,0,66.3,0H50z"/>
	<path class="st18" d="M50,12.8c-10.1,0-11.4,0-15.3,0.2c-4,0.2-6.7,0.8-9,1.7c-2.4,0.9-4.5,2.2-6.6,4.3s-3.3,4.1-4.3,6.6
		c-0.9,2.4-1.5,5.1-1.7,9c-0.2,4-0.2,5.2-0.2,15.3s0,11.4,0.2,15.3c0.2,4,0.8,6.7,1.7,9c1,2.4,2.2,4.5,4.3,6.6s4.1,3.3,6.6,4.3
		c2.4,0.9,5.1,1.5,9,1.7C38.7,87,39.9,87,50,87s11.4,0,15.3-0.2c4-0.2,6.7-0.8,9-1.7c2.4-0.9,4.5-2.2,6.6-4.3
		c2.1-2.1,3.3-4.1,4.3-6.6c0.9-2.4,1.5-5.1,1.7-9c0.2-4,0.2-5.2,0.2-15.3s0-11.4-0.2-15.3c-0.2-4-0.8-6.7-1.7-9
		c-1-2.4-2.2-4.5-4.3-6.6c-2.1-2.1-4.1-3.3-6.6-4.3c-2.4-0.9-5.1-1.5-9-1.7C61.4,12.9,60.1,12.8,50,12.8L50,12.8z M46.7,19.5
		c1,0,2.1,0,3.3,0c9.9,0,11.1,0,15,0.2c3.6,0.2,5.6,0.8,6.9,1.3c1.7,0.7,3,1.5,4.3,2.8s2.1,2.5,2.8,4.3c0.5,1.3,1.1,3.3,1.3,6.9
		c0.2,3.9,0.2,5.1,0.2,15s0,11.1-0.2,15c-0.2,3.6-0.8,5.6-1.3,6.9c-0.7,1.7-1.5,3-2.8,4.3s-2.5,2.1-4.3,2.8
		c-1.3,0.5-3.3,1.1-6.9,1.3c-3.9,0.2-5.1,0.2-15,0.2s-11.1,0-15-0.2c-3.6-0.2-5.6-0.8-6.9-1.3c-1.7-0.7-3-1.5-4.3-2.8
		c-1.3-1.3-2.1-2.5-2.8-4.3c-0.5-1.3-1.1-3.3-1.3-6.9c-0.2-3.9-0.2-5.1-0.2-15s0-11.1,0.2-15c0.2-3.6,0.8-5.6,1.3-6.9
		c0.7-1.7,1.5-3,2.8-4.3c1.3-1.3,2.5-2.1,4.3-2.8c1.3-0.5,3.3-1.1,6.9-1.3C38.4,19.6,39.8,19.5,46.7,19.5L46.7,19.5z M69.9,25.7
		c-2.5,0-4.5,2-4.5,4.5s2,4.5,4.5,4.5s4.5-2,4.5-4.5C74.3,27.7,72.3,25.7,69.9,25.7L69.9,25.7z M50,30.9c-10.5,0-19.1,8.5-19.1,19.1
		S39.5,69.1,50,69.1S69.1,60.5,69.1,50S60.6,30.9,50,30.9L50,30.9z M50,37.6c6.8,0,12.4,5.5,12.4,12.4c0,6.8-5.5,12.4-12.4,12.4
		c-6.8,0-12.4-5.5-12.4-12.4C37.6,43.2,43.2,37.6,50,37.6L50,37.6z"/>
</g>
</svg>
