<?xml version="1.0" encoding="utf-8"?>
<!-- Generator: Adobe Illustrator 28.0.0, SVG Export Plug-In . SVG Version: 6.00 Build 0)  -->
<svg version="1.1" id="Layer_1" xmlns="http://www.w3.org/2000/svg" xmlns:xlink="http://www.w3.org/1999/xlink" x="0px" y="0px"
	 viewBox="0 0 100 100" style="enable-background:new 0 0 100 100;" xml:space="preserve">
<style type="text/css">
	.st0{display:none;}
	.st1{display:inline;}
	.st2{display:inline;fill:url(#SVGID_1_);}
	.st3{display:inline;fill:url(#SVGID_00000140010425590937789880000005829003198885692088_);}
	.st4{fill:#330000;}
	.st5{fill:#FF9A00;}
	.st6{display:inline;fill:#FF9A00;}
	.st7{display:inline;fill:#0ACF83;}
	.st8{display:inline;fill:#A259FF;}
	.st9{display:inline;fill:#F24E1E;}
	.st10{display:inline;fill:#FF7262;}
	.st11{display:inline;fill:#1ABCFE;}
	.st12{display:inline;fill:url(#SVGID_00000114046389269376330710000009371396741661096595_);}
	.st13{display:inline;fill:#FFFFFF;}
	.st14{display:inline;fill:url(#SVGID_00000117654258146635888860000013167235082754020787_);}
	.st15{display:inline;fill:url(#SVGID_00000031186652151120755380000006781322516077822345_);}
	.st16{display:inline;fill:url(#SVGID_00000029028629712333542820000000031084127042362755_);}
	.st17{display:inline;fill:url(#SVGID_00000016797261136464752490000012489320351025158846_);}
	.st18{display:inline;fill:#134881;}
	.st19{display:inline;fill:url(#SVGID_00000089555586371259550200000004110993890819039403_);}
	.st20{display:inline;fill:#F7DF1E;}
	.st21{display:inline;fill:#323330;}
	.st22{display:inline;fill:#3178C6;}
	.st23{fill:#FFFFFF;}
	.st24{fill:#F05138;}
	.st25{display:inline;fill:#61DAFB;}
	.st26{fill:#61DAFB;}
	.st27{fill:#00979D;}
	.st28{fill-rule:evenodd;clip-rule:evenodd;fill:#007EBB;}
	.st29{fill-rule:evenodd;clip-rule:evenodd;fill:#FFFFFF;}
</style>
<g id="NextJS_00000101818090805187509770000012522793872671020446_" class="st0">
	<path class="st1" d="M100,50c0,14.9-6.6,28.4-16.9,37.5c-1.7,1.5-3.4,2.8-5.2,4c-8,5.4-17.6,8.5-27.9,8.5C22.4,100,0,77.6,0,50
		S22.4,0,50,0S100,22.4,100,50z"/>
	
		<linearGradient id="SVGID_1_" gradientUnits="userSpaceOnUse" x1="50.9318" y1="31.2581" x2="66.9793" y2="8.1789" gradientTransform="matrix(1 0 0 -1 0 102)">
		<stop  offset="0" style="stop-color:#FFFFFF"/>
		<stop  offset="1" style="stop-color:#FFFFFF;stop-opacity:0"/>
	</linearGradient>
	<path class="st2" d="M83,87.5c-1.7,1.5-3.4,2.8-5.2,4l-41.1-53V70H30V30h8.4L83,87.5z"/>
	
		<linearGradient id="SVGID_00000036248879076016292420000000733811866492577953_" gradientUnits="userSpaceOnUse" x1="-904.937" y1="529.361" x2="-904.9372" y2="529.0496" gradientTransform="matrix(17.0667 0 0 -102.4 15511.541 54236.5469)">
		<stop  offset="0" style="stop-color:#FFFFFF"/>
		<stop  offset="1" style="stop-color:#FFFFFF;stop-opacity:0"/>
	</linearGradient>
	
		<rect x="63.9" y="30" style="display:inline;fill:url(#SVGID_00000036248879076016292420000000733811866492577953_);" width="6.7" height="43.4"/>
</g>
<g id="illustrator" class="st0">
	<g class="st1">
		<path class="st4" d="M17.7,98C9.1,98,2,90.7,2,81.8V18.2C2,9.3,9.1,2,17.7,2h64.6C90.9,2,98,9.3,98,18.2v63.7
			c0,8.9-7,16.2-15.7,16.2H17.7V98z"/>
		<path class="st5" d="M82.3,4C89.8,4,96,10.4,96,18.2v63.7C96,89.6,89.8,96,82.3,96H17.7C10.2,96,4,89.6,4,81.8V18.2
			C4,10.4,10.2,4,17.7,4H82.3 M82.3,0H17.7C7.9,0,0,8.1,0,18.2v63.7c0,10,7.9,18.2,17.7,18.2h64.6c9.8,0,17.7-8.1,17.7-18.2V18.2
			C100,8.1,92.1,0,82.3,0L82.3,0z"/>
	</g>
	<path class="st6" d="M49.3,63.3H33.6l-3.2,10c-0.1,0.4-0.4,0.6-0.8,0.6h-8c-0.5,0-0.6-0.3-0.5-0.8l13.6-39.3
		c0.1-0.4,0.3-0.9,0.4-1.4c0.2-0.9,0.3-1.8,0.3-2.8c0-0.2,0.1-0.4,0.3-0.5h11c0.3,0,0.5,0.1,0.6,0.3L62.8,73c0.1,0.5,0,0.7-0.4,0.7
		h-8.8c-0.3,0-0.6-0.2-0.7-0.5L49.3,63.3z M36,54.7h10.8c-0.3-0.9-0.6-1.9-1-3s-0.8-2.4-1.1-3.6c-0.4-1.3-0.8-2.6-1.2-3.9
		s-0.8-2.5-1.1-3.8c-0.3-1.2-0.6-2.3-0.9-3.3h-0.1c-0.4,1.8-0.8,3.6-1.4,5.5c-0.6,2-1.3,4.1-1.9,6.3C37.3,50.9,36.7,52.9,36,54.7z
		 M72.2,36.6c-1.4,0-2.8-0.5-3.8-1.5c-1-1.1-1.5-2.5-1.4-3.9c0-1.4,0.5-2.8,1.5-3.8s2.4-1.5,3.8-1.5c1.7,0,2.9,0.5,3.9,1.5
		c0.9,1,1.4,2.4,1.4,3.8s-0.5,2.8-1.5,3.9C75.1,36.1,73.6,36.7,72.2,36.6L72.2,36.6z M67.4,73.4V40.7c0-0.4,0.2-0.6,0.6-0.6h8.4
		c0.4,0,0.6,0.2,0.6,0.6v32.6c0,0.5-0.2,0.7-0.6,0.7h-8.3C67.7,74,67.4,73.8,67.4,73.4z"/>
</g>
<g id="Figma" class="st0">
	<path class="st7" d="M33.3,100c9.2,0,16.7-7.5,16.7-16.7V66.7H33.3c-9.2,0-16.7,7.5-16.7,16.7C16.7,92.5,24.1,100,33.3,100z"/>
	<path class="st8" d="M16.7,50c0-9.2,7.5-16.7,16.7-16.7H50v33.3H33.3C24.1,66.7,16.7,59.2,16.7,50z"/>
	<path class="st9" d="M16.7,16.7C16.7,7.5,24.1,0,33.3,0H50v33.3H33.3C24.1,33.3,16.7,25.9,16.7,16.7z"/>
	<path class="st10" d="M50,0h16.7c9.2,0,16.7,7.5,16.7,16.7s-7.5,16.7-16.7,16.7H50V0z"/>
	<path class="st11" d="M83.3,50c0,9.2-7.5,16.7-16.7,16.7C57.5,66.7,50,59.2,50,50s7.5-16.7,16.7-16.7S83.3,40.8,83.3,50z"/>
</g>
<g id="Facebook" class="st0">
	
		<linearGradient id="SVGID_00000108299512424526616920000013863761666792437378_" gradientUnits="userSpaceOnUse" x1="-517.875" y1="733.7995" x2="-517.875" y2="736.2265" gradientTransform="matrix(40 0 0 -39.7778 20765 29285.4531)">
		<stop  offset="0" style="stop-color:#0062E0"/>
		<stop  offset="1" style="stop-color:#19AFFF"/>
	</linearGradient>
	<path style="display:inline;fill:url(#SVGID_00000108299512424526616920000013863761666792437378_);" d="M41.8,99.5
		C18,95.2,0,74.8,0,50C0,22.5,22.5,0,50,0s50,22.5,50,50c0,24.8-18,45.2-41.8,49.5l-2.8-2.3h-11C44.5,97.2,41.7,99.5,41.8,99.5z"/>
	<path class="st13" d="M69.5,64l2.2-14H58.5v-9.8c0-4,1.5-7,7.5-7h6.5V20.5c-3.5-0.5-7.5-1-11-1C50,19.5,42,26.5,42,39v11H29.5v14
		H42v35.2c2.8,0.5,5.5,0.8,8.2,0.8c2.8,0,5.5-0.2,8.2-0.8V64C58.5,64,69.5,64,69.5,64z"/>
</g>
<g id="Instagram" class="st0">
	
		<radialGradient id="SVGID_00000083807835136029204290000001423733322323606689_" cx="-19.7846" cy="956.2281" r="5.2352" gradientTransform="matrix(-11.7467 3.3128 -2.3868 -8.4629 2146.6677 8204.8643)" gradientUnits="userSpaceOnUse">
		<stop  offset="0" style="stop-color:#FF005F"/>
		<stop  offset="1" style="stop-color:#FC01D8"/>
	</radialGradient>
	<path style="display:inline;fill:url(#SVGID_00000083807835136029204290000001423733322323606689_);" d="M50,0
		C29.1,0,23,0,21.9,0.1c-4.3,0.4-6.9,1-9.9,2.5C9.8,3.7,8,5,6.3,6.8C3.1,10.1,1.2,14.2,0.5,19C0.1,21.3,0,21.8,0,33.7
		c0,4,0,9.2,0,16.3c0,20.9,0,27,0.1,28.1c0.3,4.2,1,6.8,2.4,9.7c2.6,5.5,7.7,9.6,13.7,11.2c2.1,0.5,4.3,0.8,7.3,1
		c1.2,0.1,13.9,0.1,26.5,0.1s25.3,0,26.5-0.1c3.4-0.2,5.3-0.4,7.5-1c6-1.5,11-5.6,13.7-11.2c1.4-2.8,2-5.5,2.4-9.5
		C100,77.4,100,63.7,100,50s0-27.4-0.1-28.3c-0.3-4-1-6.7-2.4-9.6c-1.1-2.3-2.4-4.1-4.3-5.9c-3.3-3.1-7.3-5-12.2-5.7
		C78.7,0.1,78.2,0,66.3,0H50z"/>
	
		<radialGradient id="SVGID_00000084510075706128747960000004338876040385556115_" cx="-77.2518" cy="940.8366" r="5.2352" gradientTransform="matrix(0 -15.2473 16.1771 0 -15193.4268 -1070.1802)" gradientUnits="userSpaceOnUse">
		<stop  offset="0" style="stop-color:#FFCC00"/>
		<stop  offset="0.1242" style="stop-color:#FFCC00"/>
		<stop  offset="0.5672" style="stop-color:#FE4A05"/>
		<stop  offset="0.6942" style="stop-color:#FF0F3F"/>
		<stop  offset="1" style="stop-color:#FE0657;stop-opacity:0"/>
	</radialGradient>
	<path style="display:inline;fill:url(#SVGID_00000084510075706128747960000004338876040385556115_);" d="M50,0
		C29.1,0,23,0,21.9,0.1c-4.3,0.4-6.9,1-9.9,2.5C9.8,3.7,8,5,6.3,6.8C3.1,10.1,1.2,14.2,0.5,19C0.1,21.3,0,21.8,0,33.7
		c0,4,0,9.2,0,16.3c0,20.9,0,27,0.1,28.1c0.3,4.2,1,6.8,2.4,9.7c2.6,5.5,7.7,9.6,13.7,11.2c2.1,0.5,4.3,0.8,7.3,1
		c1.2,0.1,13.9,0.1,26.5,0.1s25.3,0,26.5-0.1c3.4-0.2,5.3-0.4,7.5-1c6-1.5,11-5.6,13.7-11.2c1.4-2.8,2-5.5,2.4-9.5
		C100,77.4,100,63.7,100,50s0-27.4-0.1-28.3c-0.3-4-1-6.7-2.4-9.6c-1.1-2.3-2.4-4.1-4.3-5.9c-3.3-3.1-7.3-5-12.2-5.7
		C78.7,0.1,78.2,0,66.3,0H50z"/>
	
		<radialGradient id="SVGID_00000159455110522630348020000009189046981229691300_" cx="-44.0963" cy="936.5855" r="6.5" gradientTransform="matrix(2.549 -4.3919 5.7178 3.3185 -5190.2612 -3203.1143)" gradientUnits="userSpaceOnUse">
		<stop  offset="0" style="stop-color:#FFCC00"/>
		<stop  offset="1" style="stop-color:#FFCC00;stop-opacity:0"/>
	</radialGradient>
	<path style="display:inline;fill:url(#SVGID_00000159455110522630348020000009189046981229691300_);" d="M50,0
		C29.1,0,23,0,21.9,0.1c-4.3,0.4-6.9,1-9.9,2.5C9.8,3.7,8,5,6.3,6.8C3.1,10.1,1.2,14.2,0.5,19C0.1,21.3,0,21.8,0,33.7
		c0,4,0,9.2,0,16.3c0,20.9,0,27,0.1,28.1c0.3,4.2,1,6.8,2.4,9.7c2.6,5.5,7.7,9.6,13.7,11.2c2.1,0.5,4.3,0.8,7.3,1
		c1.2,0.1,13.9,0.1,26.5,0.1s25.3,0,26.5-0.1c3.4-0.2,5.3-0.4,7.5-1c6-1.5,11-5.6,13.7-11.2c1.4-2.8,2-5.5,2.4-9.5
		C100,77.4,100,63.7,100,50s0-27.4-0.1-28.3c-0.3-4-1-6.7-2.4-9.6c-1.1-2.3-2.4-4.1-4.3-5.9c-3.3-3.1-7.3-5-12.2-5.7
		C78.7,0.1,78.2,0,66.3,0H50z"/>
	
		<radialGradient id="SVGID_00000072964218363568169500000001437344509138749849_" cx="-130.832" cy="168.607" r="6.7081" gradientTransform="matrix(-9.0667 2.553 -0.8696 -3.0891 -1026.0239 858.9277)" gradientUnits="userSpaceOnUse">
		<stop  offset="0" style="stop-color:#780CFF"/>
		<stop  offset="1" style="stop-color:#820BFF;stop-opacity:0"/>
	</radialGradient>
	<path style="display:inline;fill:url(#SVGID_00000072964218363568169500000001437344509138749849_);" d="M50,0
		C29.1,0,23,0,21.9,0.1c-4.3,0.4-6.9,1-9.9,2.5C9.8,3.7,8,5,6.3,6.8C3.1,10.1,1.2,14.2,0.5,19C0.1,21.3,0,21.8,0,33.7
		c0,4,0,9.2,0,16.3c0,20.9,0,27,0.1,28.1c0.3,4.2,1,6.8,2.4,9.7c2.6,5.5,7.7,9.6,13.7,11.2c2.1,0.5,4.3,0.8,7.3,1
		c1.2,0.1,13.9,0.1,26.5,0.1s25.3,0,26.5-0.1c3.4-0.2,5.3-0.4,7.5-1c6-1.5,11-5.6,13.7-11.2c1.4-2.8,2-5.5,2.4-9.5
		C100,77.4,100,63.7,100,50s0-27.4-0.1-28.3c-0.3-4-1-6.7-2.4-9.6c-1.1-2.3-2.4-4.1-4.3-5.9c-3.3-3.1-7.3-5-12.2-5.7
		C78.7,0.1,78.2,0,66.3,0H50z"/>
	<path class="st13" d="M50,12.8c-10.1,0-11.4,0-15.3,0.2c-4,0.2-6.7,0.8-9,1.7c-2.4,0.9-4.5,2.2-6.6,4.3s-3.3,4.1-4.3,6.6
		c-0.9,2.4-1.5,5.1-1.7,9c-0.2,4-0.2,5.2-0.2,15.3s0,11.4,0.2,15.3c0.2,4,0.8,6.7,1.7,9c1,2.4,2.2,4.5,4.3,6.6s4.1,3.3,6.6,4.3
		c2.4,0.9,5.1,1.5,9,1.7C38.7,87,39.9,87,50,87s11.4,0,15.3-0.2c4-0.2,6.7-0.8,9-1.7c2.4-0.9,4.5-2.2,6.6-4.3
		c2.1-2.1,3.3-4.1,4.3-6.6c0.9-2.4,1.5-5.1,1.7-9c0.2-4,0.2-5.2,0.2-15.3s0-11.4-0.2-15.3c-0.2-4-0.8-6.7-1.7-9
		c-1-2.4-2.2-4.5-4.3-6.6c-2.1-2.1-4.1-3.3-6.6-4.3c-2.4-0.9-5.1-1.5-9-1.7C61.4,12.9,60.1,12.8,50,12.8L50,12.8z M46.7,19.5
		c1,0,2.1,0,3.3,0c9.9,0,11.1,0,15,0.2c3.6,0.2,5.6,0.8,6.9,1.3c1.7,0.7,3,1.5,4.3,2.8s2.1,2.5,2.8,4.3c0.5,1.3,1.1,3.3,1.3,6.9
		c0.2,3.9,0.2,5.1,0.2,15s0,11.1-0.2,15c-0.2,3.6-0.8,5.6-1.3,6.9c-0.7,1.7-1.5,3-2.8,4.3s-2.5,2.1-4.3,2.8
		c-1.3,0.5-3.3,1.1-6.9,1.3c-3.9,0.2-5.1,0.2-15,0.2s-11.1,0-15-0.2c-3.6-0.2-5.6-0.8-6.9-1.3c-1.7-0.7-3-1.5-4.3-2.8
		c-1.3-1.3-2.1-2.5-2.8-4.3c-0.5-1.3-1.1-3.3-1.3-6.9c-0.2-3.9-0.2-5.1-0.2-15s0-11.1,0.2-15c0.2-3.6,0.8-5.6,1.3-6.9
		c0.7-1.7,1.5-3,2.8-4.3c1.3-1.3,2.5-2.1,4.3-2.8c1.3-0.5,3.3-1.1,6.9-1.3C38.4,19.6,39.8,19.5,46.7,19.5L46.7,19.5z M69.9,25.7
		c-2.5,0-4.5,2-4.5,4.5s2,4.5,4.5,4.5s4.5-2,4.5-4.5C74.3,27.7,72.3,25.7,69.9,25.7L69.9,25.7z M50,30.9c-10.5,0-19.1,8.5-19.1,19.1
		S39.5,69.1,50,69.1S69.1,60.5,69.1,50S60.6,30.9,50,30.9L50,30.9z M50,37.6c6.8,0,12.4,5.5,12.4,12.4c0,6.8-5.5,12.4-12.4,12.4
		c-6.8,0-12.4-5.5-12.4-12.4C37.6,43.2,43.2,37.6,50,37.6L50,37.6z"/>
</g>
<g id="AffDesign" class="st0">
	<path class="st18" d="M100,9.8c0-5.4-4.4-9.8-9.8-9.8H9.8C4.4,0,0,4.4,0,9.8v80.5c0,5.4,4.4,9.8,9.8,9.8h80.5
		c5.4,0,9.8-4.4,9.8-9.8V9.8H100z"/>
	
		<radialGradient id="SVGID_00000173863613396206688160000013894728663136808623_" cx="-354.6658" cy="599.5137" r="0.8286" gradientTransform="matrix(122.3514 0 0 -122.3514 43466.4609 73342.5703)" gradientUnits="userSpaceOnUse">
		<stop  offset="0" style="stop-color:#6BE1FB"/>
		<stop  offset="1" style="stop-color:#38BDFA"/>
	</radialGradient>
	<path style="display:inline;fill:url(#SVGID_00000173863613396206688160000013894728663136808623_);" d="M92.7,88.8
		c0,2.1-1.8,3.9-3.9,3.9H49.3L32.5,63.5h60.2V88.8L92.7,88.8z M7.3,88.8V71.6L44.5,7.3H59L27.6,61.7l17.9,31H11.2
		C9.1,92.7,7.3,90.9,7.3,88.8z M54.9,60.2H40.2c-1.6,0-3.2-0.9-4-2.3c-0.8-1.4-0.8-3.2,0-4.6l7.3-12.7L54.9,60.2z M88.8,7.3
		c2.1,0,3.9,1.7,3.9,3.9v49h-34L45.5,37.3l17.3-30C62.8,7.3,88.8,7.3,88.8,7.3z"/>
</g>
<g id="JavaS" class="st0">
	<path class="st20" d="M10,0h80c5.5,0,10,4.5,10,10v80c0,5.5-4.5,10-10,10H10c-5.5,0-10-4.5-10-10V10C0,4.5,4.5,0,10,0z"/>
	<path class="st21" d="M91.8,76.1c-0.7-4.6-3.7-8.4-12.5-12c-3.1-1.4-6.5-2.4-7.5-4.7c-0.4-1.4-0.4-2.1-0.2-2.9
		c0.7-2.7,3.8-3.5,6.3-2.7c1.6,0.5,3.1,1.8,4.1,3.8c4.3-2.8,4.3-2.8,7.3-4.7c-1.1-1.7-1.7-2.5-2.4-3.2c-2.6-2.9-6.1-4.4-11.8-4.3
		l-2.9,0.4c-2.8,0.7-5.5,2.2-7.1,4.2c-4.7,5.4-3.4,14.8,2.4,18.6c5.7,4.3,14,5.2,15.1,9.2c1,4.9-3.6,6.5-8.2,5.9
		c-3.4-0.7-5.3-2.4-7.3-5.6c-3.7,2.2-3.7,2.2-7.6,4.4c0.9,2,1.9,2.9,3.4,4.6c7.2,7.3,25.4,7,28.6-4.1C91.6,82.6,92.5,80.1,91.8,76.1
		z M54.4,46H45v24.2c0,5.1,0.3,9.9-0.6,11.3c-1.4,2.8-4.9,2.5-6.5,1.9c-1.6-0.8-2.5-2-3.5-3.6c-0.3-0.5-0.5-0.8-0.5-0.9l-7.6,4.7
		c1.3,2.6,3.1,4.8,5.5,6.3c3.6,2.1,8.4,2.8,13.4,1.6c3.3-0.9,6.1-2.9,7.5-5.9c2.1-3.9,1.7-8.7,1.7-13.9C54.4,63.1,54.4,54.6,54.4,46
		z"/>
</g>
<g id="TypeS" class="st0">
	<path class="st22" d="M10,0h80c5.5,0,10,4.5,10,10v80c0,5.5-4.5,10-10,10H10c-5.5,0-10-4.5-10-10V10C0,4.5,4.5,0,10,0z"/>
	<g class="st1">
		<path class="st23" d="M91.8,76.1c-0.7-4.6-3.7-8.4-12.5-12c-3.1-1.4-6.5-2.4-7.5-4.7c-0.4-1.4-0.4-2.1-0.2-2.9
			c0.7-2.7,3.8-3.5,6.3-2.7c1.6,0.5,3.1,1.8,4.1,3.8c4.3-2.8,4.3-2.8,7.3-4.7c-1.1-1.7-1.7-2.5-2.4-3.2c-2.6-2.9-6.1-4.4-11.8-4.3
			l-2.9,0.4c-2.8,0.7-5.5,2.2-7.1,4.2c-4.7,5.4-3.4,14.8,2.4,18.6c5.7,4.3,14,5.2,15.1,9.2c1,4.9-3.6,6.5-8.2,5.9
			c-3.4-0.7-5.3-2.4-7.3-5.6c-3.7,2.2-3.7,2.2-7.6,4.4c0.9,2,1.9,2.9,3.4,4.6c7.2,7.3,25.4,7,28.6-4.1
			C91.6,82.6,92.5,80.1,91.8,76.1z"/>
		<path class="st23" d="M37.2,54.6H25.8V46h32.6v8.6H46.9v38.1h-9.8L37.2,54.6L37.2,54.6z"/>
	</g>
</g>
<g id="Swift" class="st0">
	<g class="st1">
		<path class="st24" d="M100,27.7c0-1,0-2,0-3c-0.1-2.2-0.2-4.4-0.6-6.6s-1-4.2-2.1-6.2c-1-2-2.3-3.8-3.9-5.3
			C91.8,5,90,3.7,88.1,2.7c-2-1-4-1.7-6.2-2.1S77.5,0.1,75.3,0c-1,0-2,0-3,0c-1.2,0-2.4,0-3.6,0H42.2h-11c-1.2,0-2.4,0-3.6,0
			c-1,0-2,0-3,0c-0.5,0-1.1,0-1.6,0.1c-1.6,0.1-3.3,0.2-4.9,0.5S14.9,1.3,13.4,2c-0.5,0.2-1,0.4-1.5,0.7C10.4,3.4,9,4.4,7.8,5.4
			C7.3,5.8,6.9,6.2,6.6,6.5C5,8.1,3.7,9.9,2.7,11.9s-1.7,4-2.1,6.2S0.1,22.5,0,24.7c0,1,0,2,0,3c0,1.2,0,2.4,0,3.6v16.3v21.1
			c0,1.2,0,2.4,0,3.6c0,1,0,2,0,3c0.1,2.2,0.2,4.4,0.6,6.6s1,4.2,2.1,6.2c1,2,2.3,3.8,3.9,5.3c1.6,1.6,3.4,2.9,5.3,3.9
			c2,1,4,1.7,6.2,2.1s4.4,0.5,6.6,0.6c1,0,2,0,3,0c1.2,0,2.4,0,3.6,0h37.4c1.2,0,2.4,0,3.6,0c1,0,2,0,3,0c2.2-0.1,4.4-0.2,6.6-0.6
			s4.2-1,6.2-2.1c2-1,3.8-2.3,5.3-3.9c1.6-1.6,2.9-3.4,3.9-5.3c1-2,1.7-4,2.1-6.2s0.5-4.4,0.6-6.6c0-1,0-2,0-3c0-1.2,0-2.4,0-3.6
			V31.3C100,30.1,100,28.9,100,27.7z"/>
		<path class="st23" d="M79.2,61.7L79.2,61.7c0.1-0.4,0.2-0.8,0.3-1.1c4.2-16.5-6-36.1-23.1-46.4c7.5,10.2,10.8,22.5,7.9,33.3
			c-0.3,1-0.6,1.9-0.9,2.8c-0.4-0.2-0.9-0.5-1.5-0.9c0,0-17.1-10.5-35.5-29.1c-0.5-0.5,9.9,14.8,21.6,27.2
			c-5.6-3.2-21-14.4-30.7-23.3c1.2,2,2.6,3.9,4.2,5.8c8.1,10.3,18.7,23,31.4,32.8c-8.9,5.5-21.6,5.9-34.2,0c-3.1-1.5-6-3.2-8.7-5.2
			c5.3,8.5,13.5,15.9,23.5,20.2c11.9,5.1,23.7,4.8,32.6,0.1l0,0l0.1-0.1c0.4-0.2,0.7-0.4,1.1-0.6c4.2-2.2,12.6-4.4,17.1,4.3
			C85.5,83.6,87.8,72.3,79.2,61.7z"/>
	</g>
</g>
<g id="ReactJS" class="st0">
	<circle class="st25" cx="50" cy="50" r="8.9"/>
	<g class="st1">
		<path class="st26" d="M50,70.4c-28,0-50-9-50-20.4s22-20.4,50-20.4s50,9,50,20.4S78,70.4,50,70.4z M50,33.9
			C23.1,33.9,4.3,42.4,4.3,50S23,66.1,50,66.1c26.9,0,45.7-8.5,45.7-16.1S76.9,33.9,50,33.9z"/>
		<path class="st26" d="M70,94.6c-4.4,0-9.8-2.4-15.6-7.2c-7.7-6.3-15.5-15.9-22.1-27.2C18.3,35.9,15.1,12.4,25,6.7
			c5.1-2.9,12.4-0.8,20.6,5.9c7.7,6.3,15.5,15.9,22,27.2s11,22.9,12.5,32.7c1.8,10.5,0,17.9-5.1,20.8C73.5,94.2,71.8,94.6,70,94.6z
			 M30.1,9.7c-1.1,0-2.1,0.2-2.9,0.7c-6.6,3.8-4.6,24.3,8.9,47.6c6.3,10.8,13.7,20.1,21,26c6.7,5.4,12.4,7.4,15.7,5.5
			c3.3-1.9,4.5-7.9,3.1-16.4c-1.5-9.3-5.8-20.4-12-31.2l0,0c-6.3-10.8-13.7-20.1-21-26C37.9,11.9,33.4,9.7,30.1,9.7z"/>
		<path class="st26" d="M30,94.6c-1.9,0-3.5-0.4-5-1.3c-5.1-2.9-6.9-10.3-5.2-20.8c1.6-9.8,6-21.4,12.5-32.7
			C46.3,15.5,65.1,1,75,6.7s6.7,29.2-7.3,53.5l0,0c-6.5,11.3-14.3,20.9-22,27.2C39.8,92.2,34.5,94.6,30,94.6z M70,9.8
			c-7.8,0-22.1,11.7-33.9,32.2c-6.3,10.8-10.5,21.9-12,31.2c-1.4,8.5-0.2,14.4,3.1,16.4c3.3,1.9,9.1-0.1,15.7-5.5
			c7.3-5.9,14.8-15.2,21-26l0,0c13.5-23.3,15.5-43.8,8.9-47.6C72,10,71.1,9.8,70,9.8z"/>
	</g>
</g>
<g class="st0">
	<g class="st1">
		<path class="st27" d="M50,100C22.5,100,0,77.5,0,50S22.5,0,50,0s50,22.5,50,50S77.5,100,50,100z"/>
	</g>
	<g class="st1">
		<path class="st23" d="M69.7,68.5c-0.9,0-2-0.1-3-0.2C58.6,67,53.1,61.1,50,56.6c-3.1,4.5-8.6,10.4-16.7,11.5c-0.9,0.1-2,0.2-3,0.2
			c-5.1,0-9.9-1.9-13.5-5.4s-5.7-8.1-5.7-13.1s2-9.6,5.7-13.1c3.6-3.4,8.4-5.4,13.5-5.4c0.9,0,2,0.1,2.9,0.2
			c8.2,1.2,13.7,7.2,16.8,11.6c3.1-4.5,8.6-10.4,16.7-11.5c0.9-0.1,2-0.2,2.9-0.2c5.1,0,9.9,1.9,13.5,5.4s5.7,8.1,5.7,13.1
			s-2,9.6-5.7,13.1C79.6,66.5,74.7,68.5,69.7,68.5 M53.6,50c1.6,3.1,6.3,10.6,14,11.8c0.7,0.1,1.3,0.1,2.1,0.1
			c6.9,0,12.6-5.4,12.6-11.9s-5.7-11.9-12.6-11.9c-0.6,0-1.3,0-2.1,0.1C60,39.4,55.3,46.9,53.6,50 M30.3,38.1
			c-6.9,0-12.6,5.4-12.6,11.9c0,6.6,5.7,11.9,12.6,11.9c0.6,0,1.3-0.1,2.1-0.1c7.7-1.1,12.4-8.7,14-11.8c-1.5-3.1-6.3-10.6-14-11.8
			C31.6,38.1,31,38.1,30.3,38.1"/>
		<path class="st23" d="M25.1,48.1h11.4v3.7H25.1V48.1z M74.8,48.1h-3.9v-3.9h-3.7v3.9h-3.8v3.7h3.9v3.9H71v-3.9h3.9L74.8,48.1
			L74.8,48.1z"/>
	</g>
</g>
<g>
	<path class="st28" d="M11.1,100h77.8c6.1,0,11.1-5,11.1-11.1V11.1C100,5,95,0,88.9,0H11.1C5,0,0,5,0,11.1v77.8C0,95,5,100,11.1,100
		z"/>
	<path class="st29" d="M86.1,86.1H71.3V60.8c0-6.9-2.6-10.8-8.1-10.8c-6,0-9.1,4-9.1,10.8v25.3H39.8V38h14.3v6.5c0,0,4.3-8,14.5-8
		s17.5,6.2,17.5,19.1V86.1z M22.7,31.7c-4.9,0-8.8-4-8.8-8.9s3.9-8.9,8.8-8.9s8.8,4,8.8,8.9S27.6,31.7,22.7,31.7z M15.3,86.1h14.9
		V38H15.3V86.1z"/>
</g>
</svg>
